<mxfile host="www.draw.io" modified="2020-01-19T23:50:11.552Z" agent="Mozilla/5.0 (Windows NT 10.0; Win64; x64) AppleWebKit/537.36 (KHTML, like Gecko) Chrome/79.0.3945.117 Safari/537.36" etag="gcO10A_CJ8VxO-4oqlAd" version="12.5.5" type="github">
  <diagram id="MsLEvCX_0FFOzMKQf4Fa" name="Page-1">
    <mxGraphModel dx="1422" dy="745" grid="1" gridSize="10" guides="1" tooltips="1" connect="1" arrows="1" fold="1" page="1" pageScale="1" pageWidth="1169" pageHeight="827" math="0" shadow="0">
      <root>
        <mxCell id="0"/>
        <mxCell id="1" parent="0"/>
        <mxCell id="a1XrPQ4sT1AWdOq16Cd1-1" value="Alice" style="shape=umlActor;verticalLabelPosition=bottom;labelBackgroundColor=#ffffff;verticalAlign=top;html=1;outlineConnect=0;fontSize=16;" parent="1" vertex="1">
          <mxGeometry x="168" y="321" width="30" height="60" as="geometry"/>
        </mxCell>
        <mxCell id="a1XrPQ4sT1AWdOq16Cd1-2" value="Hashing and Data Integrity" style="text;html=1;align=center;verticalAlign=middle;resizable=0;points=[];autosize=1;fontSize=30;fontStyle=1" parent="1" vertex="1">
          <mxGeometry x="378" y="19" width="400" height="40" as="geometry"/>
        </mxCell>
        <mxCell id="a1XrPQ4sT1AWdOq16Cd1-3" value="M" style="text;html=1;align=center;verticalAlign=middle;resizable=0;points=[];autosize=1;fontSize=30;" parent="1" vertex="1">
          <mxGeometry x="30" y="260" width="40" height="40" as="geometry"/>
        </mxCell>
        <mxCell id="a1XrPQ4sT1AWdOq16Cd1-4" value="H&lt;sub&gt;1&lt;/sub&gt;" style="shape=trapezoid;perimeter=trapezoidPerimeter;whiteSpace=wrap;html=1;fontSize=30;direction=west;" parent="1" vertex="1">
          <mxGeometry y="340" width="100" height="50" as="geometry"/>
        </mxCell>
        <mxCell id="a1XrPQ4sT1AWdOq16Cd1-5" value="h&lt;sub&gt;1&lt;/sub&gt;" style="text;html=1;align=center;verticalAlign=middle;resizable=0;points=[];autosize=1;fontSize=30;" parent="1" vertex="1">
          <mxGeometry x="25" y="423" width="50" height="50" as="geometry"/>
        </mxCell>
        <mxCell id="a1XrPQ4sT1AWdOq16Cd1-6" value="" style="endArrow=classic;html=1;fontSize=30;exitX=0.525;exitY=1.025;exitDx=0;exitDy=0;exitPerimeter=0;" parent="1" source="a1XrPQ4sT1AWdOq16Cd1-3" edge="1">
          <mxGeometry width="50" height="50" relative="1" as="geometry">
            <mxPoint x="8" y="540" as="sourcePoint"/>
            <mxPoint x="51" y="340" as="targetPoint"/>
          </mxGeometry>
        </mxCell>
        <mxCell id="a1XrPQ4sT1AWdOq16Cd1-8" value="" style="endArrow=classic;html=1;fontSize=30;exitX=0.525;exitY=1.025;exitDx=0;exitDy=0;exitPerimeter=0;" parent="1" edge="1">
          <mxGeometry width="50" height="50" relative="1" as="geometry">
            <mxPoint x="49.5" y="390" as="sourcePoint"/>
            <mxPoint x="49.5" y="429" as="targetPoint"/>
          </mxGeometry>
        </mxCell>
        <mxCell id="a1XrPQ4sT1AWdOq16Cd1-9" value="h&lt;sub&gt;1&lt;/sub&gt;" style="rounded=0;whiteSpace=wrap;html=1;fontSize=30;" parent="1" vertex="1">
          <mxGeometry x="278" y="381" width="120" height="60" as="geometry"/>
        </mxCell>
        <mxCell id="a1XrPQ4sT1AWdOq16Cd1-11" value="M" style="rounded=0;whiteSpace=wrap;html=1;fontSize=30;" parent="1" vertex="1">
          <mxGeometry x="278" y="281" width="120" height="60" as="geometry"/>
        </mxCell>
        <mxCell id="a1XrPQ4sT1AWdOq16Cd1-13" value="Bob" style="shape=umlActor;verticalLabelPosition=bottom;labelBackgroundColor=#ffffff;verticalAlign=top;html=1;outlineConnect=0;fontSize=16;" parent="1" vertex="1">
          <mxGeometry x="840" y="321" width="30" height="60" as="geometry"/>
        </mxCell>
        <mxCell id="a1XrPQ4sT1AWdOq16Cd1-22" value="" style="edgeStyle=orthogonalEdgeStyle;fontSize=12;html=1;endArrow=classicThin;endFill=1;rounded=0;strokeWidth=1;exitX=1;exitY=0.5;exitDx=0;exitDy=0;" parent="1" source="a1XrPQ4sT1AWdOq16Cd1-11" edge="1">
          <mxGeometry width="60" height="60" relative="1" as="geometry">
            <mxPoint x="500" y="361" as="sourcePoint"/>
            <mxPoint x="840" y="361" as="targetPoint"/>
            <Array as="points">
              <mxPoint x="600" y="311"/>
              <mxPoint x="600" y="361"/>
            </Array>
          </mxGeometry>
        </mxCell>
        <mxCell id="a1XrPQ4sT1AWdOq16Cd1-23" value="" style="edgeStyle=orthogonalEdgeStyle;fontSize=12;html=1;endArrow=classicThin;endFill=1;rounded=0;strokeWidth=1;exitX=1;exitY=0.5;exitDx=0;exitDy=0;" parent="1" source="a1XrPQ4sT1AWdOq16Cd1-9" edge="1">
          <mxGeometry width="60" height="60" relative="1" as="geometry">
            <mxPoint x="408" y="321" as="sourcePoint"/>
            <mxPoint x="840" y="361" as="targetPoint"/>
            <Array as="points">
              <mxPoint x="600" y="411"/>
              <mxPoint x="600" y="361"/>
              <mxPoint x="840" y="361"/>
            </Array>
          </mxGeometry>
        </mxCell>
        <mxCell id="0Is_LELMPdNeTCZzs-sJ-1" value="" style="endArrow=classic;html=1;entryX=0;entryY=0.5;entryDx=0;entryDy=0;" edge="1" parent="1" target="a1XrPQ4sT1AWdOq16Cd1-11">
          <mxGeometry width="50" height="50" relative="1" as="geometry">
            <mxPoint x="190" y="351" as="sourcePoint"/>
            <mxPoint x="60" y="531" as="targetPoint"/>
          </mxGeometry>
        </mxCell>
        <mxCell id="0Is_LELMPdNeTCZzs-sJ-2" value="" style="endArrow=classic;html=1;entryX=0;entryY=0.5;entryDx=0;entryDy=0;" edge="1" parent="1" target="a1XrPQ4sT1AWdOq16Cd1-9">
          <mxGeometry width="50" height="50" relative="1" as="geometry">
            <mxPoint x="190" y="351" as="sourcePoint"/>
            <mxPoint x="288" y="321" as="targetPoint"/>
          </mxGeometry>
        </mxCell>
        <mxCell id="0Is_LELMPdNeTCZzs-sJ-3" value="" style="shape=curlyBracket;whiteSpace=wrap;html=1;rounded=1;rotation=-180;" vertex="1" parent="1">
          <mxGeometry x="120" y="262" width="20" height="201" as="geometry"/>
        </mxCell>
        <mxCell id="0Is_LELMPdNeTCZzs-sJ-4" value="Alice sends both M and h&lt;sub style=&quot;font-size: 16px;&quot;&gt;1&amp;nbsp; &lt;/sub&gt;to Bob" style="whiteSpace=wrap;html=1;shape=partialRectangle;top=0;left=0;bottom=1;right=0;points=[[0,1],[1,1]];strokeColor=#000000;fillColor=none;align=center;verticalAlign=bottom;routingCenterY=0.5;snapToPoint=1;container=1;recursiveResize=0;autosize=1;treeFolding=1;treeMoving=1;fontSize=16;" vertex="1" parent="1">
          <mxGeometry x="198" y="246" width="134" height="30" as="geometry"/>
        </mxCell>
        <mxCell id="0Is_LELMPdNeTCZzs-sJ-5" value="" style="edgeStyle=entityRelationEdgeStyle;startArrow=none;endArrow=none;segment=10;curved=1;entryX=0;entryY=1;entryDx=0;entryDy=0;" edge="1" target="0Is_LELMPdNeTCZzs-sJ-4" parent="1">
          <mxGeometry relative="1" as="geometry">
            <mxPoint x="188" y="320" as="sourcePoint"/>
          </mxGeometry>
        </mxCell>
        <mxCell id="0Is_LELMPdNeTCZzs-sJ-6" value="Eve" style="shape=umlActor;verticalLabelPosition=bottom;labelBackgroundColor=#ffffff;verticalAlign=top;html=1;outlineConnect=0;fontSize=16;" vertex="1" parent="1">
          <mxGeometry x="490" y="140" width="30" height="60" as="geometry"/>
        </mxCell>
        <mxCell id="0Is_LELMPdNeTCZzs-sJ-7" value="" style="endArrow=classic;html=1;exitX=0.5;exitY=0;exitDx=0;exitDy=0;strokeColor=#FF0000;" edge="1" parent="1" source="a1XrPQ4sT1AWdOq16Cd1-11">
          <mxGeometry width="50" height="50" relative="1" as="geometry">
            <mxPoint x="10" y="540" as="sourcePoint"/>
            <mxPoint x="490" y="180" as="targetPoint"/>
          </mxGeometry>
        </mxCell>
        <mxCell id="0Is_LELMPdNeTCZzs-sJ-8" value="&lt;font style=&quot;font-size: 30px&quot;&gt;M&lt;/font&gt;&lt;font style=&quot;font-size: 25px&quot;&gt;&lt;sub&gt;X&lt;/sub&gt;&lt;/font&gt;" style="rounded=0;whiteSpace=wrap;html=1;" vertex="1" parent="1">
          <mxGeometry x="600" y="140" width="120" height="60" as="geometry"/>
        </mxCell>
        <mxCell id="0Is_LELMPdNeTCZzs-sJ-9" value="" style="endArrow=classic;html=1;strokeColor=#FF0000;entryX=0;entryY=0.5;entryDx=0;entryDy=0;" edge="1" parent="1" target="0Is_LELMPdNeTCZzs-sJ-8">
          <mxGeometry width="50" height="50" relative="1" as="geometry">
            <mxPoint x="520" y="170" as="sourcePoint"/>
            <mxPoint x="60" y="490" as="targetPoint"/>
          </mxGeometry>
        </mxCell>
        <mxCell id="0Is_LELMPdNeTCZzs-sJ-10" value="" style="endArrow=classic;html=1;strokeColor=#FF0000;exitX=1;exitY=0.5;exitDx=0;exitDy=0;" edge="1" parent="1" source="0Is_LELMPdNeTCZzs-sJ-8">
          <mxGeometry width="50" height="50" relative="1" as="geometry">
            <mxPoint x="10" y="540" as="sourcePoint"/>
            <mxPoint x="840" y="330" as="targetPoint"/>
          </mxGeometry>
        </mxCell>
        <mxCell id="0Is_LELMPdNeTCZzs-sJ-11" value="Eve intersects the message and makes some changes then sends it to Bob" style="whiteSpace=wrap;html=1;shape=partialRectangle;top=0;left=0;bottom=1;right=0;points=[[0,1],[1,1]];strokeColor=#000000;fillColor=none;align=center;verticalAlign=bottom;routingCenterY=0.5;snapToPoint=1;container=1;recursiveResize=0;autosize=1;treeFolding=1;treeMoving=1;fontSize=16;" vertex="1" parent="1">
          <mxGeometry x="583" y="90" width="287" height="20" as="geometry"/>
        </mxCell>
        <mxCell id="0Is_LELMPdNeTCZzs-sJ-12" value="" style="edgeStyle=entityRelationEdgeStyle;startArrow=none;endArrow=none;segment=10;curved=1;strokeColor=#080808;entryX=0;entryY=1;entryDx=0;entryDy=0;" edge="1" target="0Is_LELMPdNeTCZzs-sJ-11" parent="1">
          <mxGeometry relative="1" as="geometry">
            <mxPoint x="530" y="140" as="sourcePoint"/>
          </mxGeometry>
        </mxCell>
        <mxCell id="0Is_LELMPdNeTCZzs-sJ-13" value="M" style="text;html=1;align=center;verticalAlign=middle;resizable=0;points=[];autosize=1;fontSize=30;" vertex="1" parent="1">
          <mxGeometry x="950" y="256" width="40" height="40" as="geometry"/>
        </mxCell>
        <mxCell id="0Is_LELMPdNeTCZzs-sJ-14" value="H&lt;sub&gt;1&lt;/sub&gt;" style="shape=trapezoid;perimeter=trapezoidPerimeter;whiteSpace=wrap;html=1;fontSize=30;direction=west;" vertex="1" parent="1">
          <mxGeometry x="920" y="336" width="100" height="50" as="geometry"/>
        </mxCell>
        <mxCell id="0Is_LELMPdNeTCZzs-sJ-15" value="h&lt;sub&gt;1&lt;/sub&gt;" style="text;html=1;align=center;verticalAlign=middle;resizable=0;points=[];autosize=1;fontSize=30;" vertex="1" parent="1">
          <mxGeometry x="945" y="419" width="50" height="50" as="geometry"/>
        </mxCell>
        <mxCell id="0Is_LELMPdNeTCZzs-sJ-16" value="" style="endArrow=classic;html=1;fontSize=30;exitX=0.525;exitY=1.025;exitDx=0;exitDy=0;exitPerimeter=0;" edge="1" parent="1" source="0Is_LELMPdNeTCZzs-sJ-13">
          <mxGeometry width="50" height="50" relative="1" as="geometry">
            <mxPoint x="928" y="536" as="sourcePoint"/>
            <mxPoint x="971" y="336" as="targetPoint"/>
          </mxGeometry>
        </mxCell>
        <mxCell id="0Is_LELMPdNeTCZzs-sJ-17" value="" style="endArrow=classic;html=1;fontSize=30;exitX=0.525;exitY=1.025;exitDx=0;exitDy=0;exitPerimeter=0;" edge="1" parent="1">
          <mxGeometry width="50" height="50" relative="1" as="geometry">
            <mxPoint x="969.5" y="386" as="sourcePoint"/>
            <mxPoint x="969.5" y="425" as="targetPoint"/>
          </mxGeometry>
        </mxCell>
        <mxCell id="0Is_LELMPdNeTCZzs-sJ-24" value="M&lt;sub&gt;x&lt;/sub&gt;" style="text;html=1;align=center;verticalAlign=middle;resizable=0;points=[];autosize=1;fontSize=30;" vertex="1" parent="1">
          <mxGeometry x="1085" y="250" width="50" height="50" as="geometry"/>
        </mxCell>
        <mxCell id="0Is_LELMPdNeTCZzs-sJ-25" value="H&lt;sub&gt;1&lt;/sub&gt;" style="shape=trapezoid;perimeter=trapezoidPerimeter;whiteSpace=wrap;html=1;fontSize=30;direction=west;" vertex="1" parent="1">
          <mxGeometry x="1060" y="336" width="100" height="50" as="geometry"/>
        </mxCell>
        <mxCell id="0Is_LELMPdNeTCZzs-sJ-26" value="h&lt;span style=&quot;font-size: 25px&quot;&gt;&lt;sub&gt;x&lt;/sub&gt;&lt;/span&gt;" style="text;html=1;align=center;verticalAlign=middle;resizable=0;points=[];autosize=1;fontSize=30;" vertex="1" parent="1">
          <mxGeometry x="1090" y="419" width="40" height="50" as="geometry"/>
        </mxCell>
        <mxCell id="0Is_LELMPdNeTCZzs-sJ-27" value="" style="endArrow=classic;html=1;fontSize=30;exitX=0.525;exitY=1.025;exitDx=0;exitDy=0;exitPerimeter=0;" edge="1" parent="1" source="0Is_LELMPdNeTCZzs-sJ-24">
          <mxGeometry width="50" height="50" relative="1" as="geometry">
            <mxPoint x="1068" y="536" as="sourcePoint"/>
            <mxPoint x="1111" y="336" as="targetPoint"/>
          </mxGeometry>
        </mxCell>
        <mxCell id="0Is_LELMPdNeTCZzs-sJ-28" value="" style="endArrow=classic;html=1;fontSize=30;exitX=0.525;exitY=1.025;exitDx=0;exitDy=0;exitPerimeter=0;" edge="1" parent="1">
          <mxGeometry width="50" height="50" relative="1" as="geometry">
            <mxPoint x="1109.5" y="386" as="sourcePoint"/>
            <mxPoint x="1109.5" y="425" as="targetPoint"/>
          </mxGeometry>
        </mxCell>
        <mxCell id="0Is_LELMPdNeTCZzs-sJ-29" value="" style="shape=curlyBracket;whiteSpace=wrap;html=1;rounded=1;rotation=0;" vertex="1" parent="1">
          <mxGeometry x="890" y="260" width="20" height="200" as="geometry"/>
        </mxCell>
        <mxCell id="0Is_LELMPdNeTCZzs-sJ-30" value="" style="ellipse;whiteSpace=wrap;html=1;fillColor=none;dashed=1;" vertex="1" parent="1">
          <mxGeometry x="900" y="400" width="250" height="96" as="geometry"/>
        </mxCell>
        <mxCell id="0Is_LELMPdNeTCZzs-sJ-31" value="" style="endArrow=classic;html=1;strokeColor=#080808;entryX=1;entryY=0.75;entryDx=0;entryDy=0;exitX=0;exitY=0.5;exitDx=0;exitDy=0;dashed=1;" edge="1" parent="1" source="0Is_LELMPdNeTCZzs-sJ-30" target="a1XrPQ4sT1AWdOq16Cd1-9">
          <mxGeometry width="50" height="50" relative="1" as="geometry">
            <mxPoint x="10" y="570" as="sourcePoint"/>
            <mxPoint x="60" y="520" as="targetPoint"/>
          </mxGeometry>
        </mxCell>
        <mxCell id="0Is_LELMPdNeTCZzs-sJ-32" value="Alice creates a hash using a function she and Bob agreed upon" style="whiteSpace=wrap;html=1;shape=partialRectangle;top=0;left=0;bottom=1;right=0;points=[[0,1],[1,1]];strokeColor=#000000;fillColor=none;align=center;verticalAlign=bottom;routingCenterY=0.5;snapToPoint=1;container=1;recursiveResize=0;autosize=1;treeFolding=1;treeMoving=1;fontSize=16;" vertex="1" parent="1">
          <mxGeometry x="160" y="200" width="252" height="20" as="geometry"/>
        </mxCell>
        <mxCell id="0Is_LELMPdNeTCZzs-sJ-33" value="" style="edgeStyle=entityRelationEdgeStyle;startArrow=none;endArrow=none;segment=10;curved=1;strokeColor=#080808;exitX=0.4;exitY=0.856;exitDx=0;exitDy=0;entryX=0;entryY=1;entryDx=0;entryDy=0;exitPerimeter=0;" edge="1" target="0Is_LELMPdNeTCZzs-sJ-32" parent="1" source="0Is_LELMPdNeTCZzs-sJ-3">
          <mxGeometry relative="1" as="geometry">
            <mxPoint x="-30" y="560" as="sourcePoint"/>
          </mxGeometry>
        </mxCell>
        <mxCell id="0Is_LELMPdNeTCZzs-sJ-34" value="h&lt;sub style=&quot;font-size: 16px;&quot;&gt;1 &lt;/sub&gt;= H&lt;sub style=&quot;font-size: 16px;&quot;&gt;1&lt;/sub&gt;(M)" style="text;html=1;align=center;verticalAlign=middle;resizable=0;points=[];autosize=1;fontSize=16;" vertex="1" parent="1">
          <mxGeometry x="288" y="438" width="100" height="30" as="geometry"/>
        </mxCell>
      </root>
    </mxGraphModel>
  </diagram>
</mxfile>
